<svg xmlns="http://www.w3.org/2000/svg" xmlns:xlink="http://www.w3.org/1999/xlink" width="300" height="300" viewBox="0 0 300 300">
  <defs>
    <clipPath id="clip-Tamaño_personalizado_1">
      <rect width="300" height="300"/>
    </clipPath>
  </defs>
  <g id="Tamaño_personalizado_1" data-name="Tamaño personalizado – 1" clip-path="url(#clip-Tamaño_personalizado_1)">
    <rect width="300" height="300" fill="#fff"/>
    <g id="asiento_descarga" data-name="asiento descarga" transform="translate(31.415 10.63)">
      <path id="Trazado_1" data-name="Trazado 1" d="M237.171,76.931A49.931,49.931,0,0,0,187.24,27H49.931A49.931,49.931,0,0,0,0,76.931V89.413a49.931,49.931,0,0,0,49.931,49.931H187.24a49.931,49.931,0,0,0,49.931-49.931Z" transform="translate(0 138.895)" fill="#e1e1e1"/>
      <path id="Trazado_2" data-name="Trazado 2" d="M196.982,47.31A46.81,46.81,0,0,0,150.171.5H50.31A46.81,46.81,0,0,0,3.5,47.31v181a9.362,9.362,0,0,0,9.362,9.362H187.62a9.362,9.362,0,0,0,9.362-9.362Z" transform="translate(18.345)" fill="#fff" stroke="#0050ab" stroke-width="2"/>
      <path id="Trazado_3" data-name="Trazado 3" d="M31.707,32.1A15.6,15.6,0,1,0,.5,32.1v91.54a30.167,30.167,0,0,0,30.166,30.166,1.04,1.04,0,0,0,1.04-1.04Z" transform="translate(2.621 83.861)" fill="#fff" stroke="#0050ab" stroke-width="2"/>
      <path id="Trazado_4" data-name="Trazado 4" d="M63.707,32.1a15.6,15.6,0,0,0-31.207,0V152.769a1.04,1.04,0,0,0,1.04,1.04,30.167,30.167,0,0,0,30.166-30.166Z" transform="translate(170.344 83.861)" fill="#fff" stroke="#0050ab" stroke-width="2"/>
      <path id="Trazado_5" data-name="Trazado 5" d="M174.016,55.586c0-6.427-2.868-11.968-8.091-14.362C154.378,35.93,130.855,28.5,89.758,28.5s-64.62,7.43-76.167,12.724C8.368,43.617,5.5,49.158,5.5,55.586V90.913H174.016Z" transform="translate(28.827 146.757)" fill="#fff" stroke="#0050ab" stroke-width="2"/>
    </g>
  </g>
</svg>
