<svg xmlns="http://www.w3.org/2000/svg" xmlns:xlink="http://www.w3.org/1999/xlink" width="300" height="300" viewBox="0 0 300 300">
  <defs>
    <clipPath id="clip-Tamaño_personalizado_1">
      <rect width="300" height="300"/>
    </clipPath>
  </defs>
  <g id="Tamaño_personalizado_1" data-name="Tamaño personalizado – 1" clip-path="url(#clip-Tamaño_personalizado_1)">
    <rect width="300" height="300" fill="#fff"/>
    <g id="asiento_descarga_2" data-name="asiento descarga 2" transform="translate(31.415 10.631)">
      <path id="Trazado_1" data-name="Trazado 1" d="M237.17,77.014A49.972,49.972,0,0,0,187.239,27H49.931A49.972,49.972,0,0,0,0,77.014v12.5a49.972,49.972,0,0,0,49.931,50.014H187.239A49.972,49.972,0,0,0,237.17,89.517Z" transform="translate(0 138.708)" fill="#e1e1e1"/>
      <path id="Trazado_2" data-name="Trazado 2" d="M196.908,47.3A46.8,46.8,0,0,0,150.116.5H50.292A46.794,46.794,0,0,0,3.5,47.3V228.243a9.359,9.359,0,0,0,9.358,9.359H187.55a9.359,9.359,0,0,0,9.358-9.359Z" transform="translate(18.381)" fill="#0050ab" stroke="#fff" stroke-width="2"/>
      <path id="Trazado_3" data-name="Trazado 3" d="M31.759,32.129a15.629,15.629,0,0,0-31.259,0v91.692a30.217,30.217,0,0,0,30.217,30.216A1.042,1.042,0,0,0,31.759,153Z" transform="translate(2.626 83.565)" fill="#0050ab" stroke="#fff" stroke-width="2"/>
      <path id="Trazado_4" data-name="Trazado 4" d="M63.759,32.129a15.629,15.629,0,1,0-31.259,0V153a1.042,1.042,0,0,0,1.042,1.042,30.217,30.217,0,0,0,30.216-30.216Z" transform="translate(170.286 83.565)" fill="#0050ab" stroke="#fff" stroke-width="2"/>
      <path id="Trazado_5" data-name="Trazado 5" d="M173.9,55.631c0-6.438-2.866-11.988-8.085-14.386C154.276,35.943,130.77,28.5,89.7,28.5S25.125,35.943,13.585,41.245C8.366,43.642,5.5,49.193,5.5,55.631V91.017H173.9Z" transform="translate(28.884 146.585)" fill="#0050ab" stroke="#fff" stroke-width="2"/>
      <path id="Trazado_6" data-name="Trazado 6" d="M48.76,66.452,19.5,36.444,11,45.384,48.76,83.457,111.027,20.5,102.212,12Z" transform="translate(57.571 60.234)" fill="#fff"/>
    </g>
  </g>
</svg>
